<svg xmlns="http://www.w3.org/2000/svg" width="1280" height="820" viewBox="0 0 1280 820">
  <defs>
    <style>
      .bg { fill: #0f172a; }
      .panel { fill: #111827; stroke: #334155; stroke-width: 1; }
      .panel2 { fill: #0b1220; stroke: #334155; stroke-width: 1; }
      .muted { fill: #94a3b8; font-family: -apple-system, BlinkMacSystemFont, 'Segoe UI', sans-serif; }
      .text { fill: #e5e7eb; font-family: -apple-system, BlinkMacSystemFont, 'Segoe UI', sans-serif; }
      .dim { fill: #64748b; font-family: -apple-system, BlinkMacSystemFont, 'Segoe UI', sans-serif; }
      .accent { fill: #60a5fa; }
      .green { fill: #22c55e; }
      .amber { fill: #f59e0b; }
      .red { fill: #ef4444; }
      .chip { fill: #1e293b; stroke: #334155; stroke-width: 1; }
      .blueChip { fill: rgba(37,99,235,0.20); stroke: #2563eb; stroke-width: 1; }
      .line { stroke: #334155; stroke-width: 1; }
      .dash { stroke: #475569; stroke-width: 2; stroke-dasharray: 5 5; }
      .title { font-size: 18px; font-weight: 700; }
      .h2 { font-size: 15px; font-weight: 700; }
      .body { font-size: 12px; }
      .small { font-size: 10px; }
      .mono { font-family: ui-monospace, SFMono-Regular, Menlo, Consolas, monospace; }
    </style>
  </defs>

  <rect class="bg" x="0" y="0" width="1280" height="820" rx="0"/>

  <!-- Browser shell -->
  <rect class="panel2" x="40" y="36" width="1200" height="720" rx="16"/>
  <rect class="panel" x="40" y="36" width="1200" height="40" rx="16"/>
  <circle cx="64" cy="56" r="5" fill="#ef4444"/>
  <circle cx="82" cy="56" r="5" fill="#f59e0b"/>
  <circle cx="100" cy="56" r="5" fill="#22c55e"/>
  <text class="muted body" x="620" y="61" text-anchor="middle">pi-web · Trellis Panel Prototype</text>

  <!-- Left sidebar -->
  <rect class="panel" x="40" y="76" width="230" height="680"/>
  <text class="text h2" x="62" y="108">Sessions</text>
  <rect class="chip" x="60" y="126" width="188" height="34" rx="8"/>
  <text class="muted body" x="72" y="147">project: pi-agent-web</text>
  <line class="line" x1="60" y1="178" x2="248" y2="178"/>
  <text class="dim small" x="62" y="204">RECENT TASK CHAT</text>
  <rect class="blueChip" x="60" y="218" width="188" height="46" rx="8"/>
  <text class="text body" x="72" y="239">Trellis 面板设计</text>
  <text class="muted small" x="72" y="255">planning · just now</text>
  <rect class="chip" x="60" y="274" width="188" height="46" rx="8"/>
  <text class="muted body" x="72" y="295">WorkTree settings</text>
  <text class="dim small" x="72" y="311">completed</text>

  <rect class="chip" x="58" y="706" width="42" height="30" rx="8"/>
  <text class="muted small" x="79" y="725" text-anchor="middle">Models</text>
  <rect class="chip" x="104" y="706" width="42" height="30" rx="8"/>
  <text class="muted small" x="125" y="725" text-anchor="middle">Usage</text>
  <rect class="chip" x="150" y="706" width="42" height="30" rx="8"/>
  <text class="muted small" x="171" y="725" text-anchor="middle">Skills</text>
  <rect class="blueChip" x="196" y="706" width="52" height="30" rx="8"/>
  <text class="text small" x="222" y="725" text-anchor="middle">Settings</text>

  <!-- Center chat -->
  <rect fill="#0b1220" x="270" y="76" width="520" height="680"/>
  <rect class="panel" x="270" y="76" width="520" height="40"/>
  <text class="muted body" x="292" y="101">Chat</text>
  <rect class="chip" x="314" y="160" width="420" height="80" rx="14"/>
  <text class="text body" x="334" y="188">User: 去设计一下这个功能</text>
  <text class="muted body" x="334" y="210">需要 Trellis 面板、设置开关、右侧抽屉、任务详情...</text>
  <rect class="panel" x="314" y="266" width="420" height="118" rx="14"/>
  <text class="text body" x="334" y="294">Assistant: 已创建 Trellis task，并产出设计草案。</text>
  <text class="muted body" x="334" y="318">右侧可打开 Trellis drawer 查看任务阶段进度。</text>
  <rect class="chip" x="314" y="688" width="420" height="42" rx="12"/>
  <text class="dim body" x="334" y="714">Message pi...</text>

  <!-- Right drawer -->
  <rect class="panel" x="790" y="76" width="450" height="680"/>
  <rect class="panel" x="790" y="76" width="450" height="40"/>
  <text class="text h2" x="812" y="101">Trellis</text>
  <text class="muted small" x="874" y="101">pi-agent-web</text>
  <rect class="chip" x="1042" y="84" width="94" height="24" rx="8"/>
  <text class="muted small" x="1089" y="100" text-anchor="middle">Archived □</text>
  <rect class="blueChip" x="1146" y="84" width="66" height="24" rx="8"/>
  <text class="text small" x="1179" y="100" text-anchor="middle">Refresh</text>

  <!-- Toggle rail -->
  <rect class="chip" x="1240" y="76" width="36" height="36" rx="0"/>
  <text class="muted h2" x="1258" y="99" text-anchor="middle">▣</text>
  <rect class="blueChip" x="1240" y="112" width="36" height="36" rx="0"/>
  <text class="text h2" x="1258" y="135" text-anchor="middle">T</text>

  <!-- Trellis list -->
  <rect class="panel2" x="804" y="128" width="154" height="606" rx="10"/>
  <rect class="chip" x="816" y="144" width="130" height="28" rx="8"/>
  <text class="dim small" x="826" y="162">Search tasks...</text>

  <text class="dim small" x="816" y="194">IN PROGRESS · 1</text>
  <rect class="blueChip" x="814" y="206" width="134" height="64" rx="10"/>
  <circle class="amber" cx="826" cy="224" r="4"/>
  <text class="text small" x="838" y="226">Trellis 面板设计</text>
  <text class="muted small" x="826" y="246">P2 · zyj</text>
  <text class="muted small" x="826" y="260">Plan active · 1/4</text>

  <text class="dim small" x="816" y="294">PLANNING · 2</text>
  <rect class="chip" x="814" y="306" width="134" height="52" rx="10"/>
  <circle class="amber" cx="826" cy="324" r="4"/>
  <text class="muted small" x="838" y="326">API contract</text>
  <text class="dim small" x="826" y="346">child task</text>
  <rect class="chip" x="814" y="366" width="134" height="52" rx="10"/>
  <circle class="amber" cx="826" cy="384" r="4"/>
  <text class="muted small" x="838" y="386">UI polish</text>
  <text class="dim small" x="826" y="406">child task</text>

  <text class="dim small" x="816" y="442">COMPLETED · 4</text>
  <rect class="chip" x="814" y="454" width="134" height="46" rx="10"/>
  <circle class="green" cx="826" cy="472" r="4"/>
  <text class="muted small" x="838" y="474">WorkTree config</text>
  <text class="dim small" x="826" y="492">archived</text>

  <!-- Detail -->
  <rect fill="#0f172a" x="972" y="128" width="252" height="606" rx="10" stroke="#334155"/>
  <text class="text title" x="992" y="160">Trellis 面板设计</text>
  <rect class="blueChip" x="992" y="174" width="60" height="22" rx="999"/>
  <text class="text small" x="1022" y="189" text-anchor="middle">planning</text>
  <rect class="chip" x="1060" y="174" width="36" height="22" rx="999"/>
  <text class="muted small" x="1078" y="189" text-anchor="middle">P2</text>
  <text class="muted small mono" x="992" y="216">.trellis/tasks/06-26-trellis-panel-design</text>

  <text class="text h2" x="992" y="252">Progress</text>
  <line stroke="#60a5fa" stroke-width="4" x1="1008" y1="282" x2="1068" y2="282"/>
  <line class="dash" x1="1068" y1="282" x2="1200" y2="282"/>
  <circle cx="1008" cy="282" r="10" fill="#60a5fa"/>
  <text class="bg small" x="1008" y="286" text-anchor="middle">1</text>
  <circle cx="1068" cy="282" r="10" fill="#1e293b" stroke="#64748b"/>
  <text class="muted small" x="1068" y="286" text-anchor="middle">2</text>
  <circle cx="1134" cy="282" r="10" fill="#1e293b" stroke="#64748b"/>
  <text class="muted small" x="1134" y="286" text-anchor="middle">3</text>
  <circle cx="1200" cy="282" r="10" fill="#1e293b" stroke="#64748b"/>
  <text class="muted small" x="1200" y="286" text-anchor="middle">4</text>
  <text class="text small" x="992" y="316">Plan active · PRD ready · design draft available</text>
  <text class="dim small" x="992" y="334">Estimated stage progress: 25%</text>

  <text class="text h2" x="992" y="374">Artifacts</text>
  <rect class="blueChip" x="992" y="390" width="44" height="24" rx="8"/>
  <text class="text small" x="1014" y="406" text-anchor="middle">PRD</text>
  <rect class="chip" x="1042" y="390" width="54" height="24" rx="8"/>
  <text class="muted small" x="1069" y="406" text-anchor="middle">Design</text>
  <rect class="chip" x="1102" y="390" width="70" height="24" rx="8"/>
  <text class="muted small" x="1137" y="406" text-anchor="middle">Implement</text>

  <rect class="panel2" x="992" y="428" width="212" height="166" rx="8"/>
  <text class="muted small" x="1008" y="450">Goal</text>
  <text class="text small" x="1008" y="472">Optional Trellis drawer lists tasks and</text>
  <text class="text small" x="1008" y="490">shows detail/progress beside chat.</text>
  <text class="muted small" x="1008" y="524">Acceptance</text>
  <text class="text small" x="1008" y="546">✓ Settings toggle</text>
  <text class="text small" x="1008" y="564">✓ Task list/detail</text>
  <text class="text small" x="1008" y="582">✓ Phase timeline</text>

  <text class="text h2" x="992" y="632">Metadata</text>
  <text class="muted small" x="992" y="656">Assignee: zyj</text>
  <text class="muted small" x="992" y="676">Children: 0/0</text>
  <text class="muted small" x="992" y="696">Branch: pi/20260626-151440</text>

  <!-- Settings modal callout -->
  <rect fill="rgba(2,6,23,0.82)" x="146" y="104" width="520" height="350" rx="16" stroke="#475569"/>
  <text class="text title" x="174" y="142">Settings</text>
  <text class="muted body" x="174" y="164">配置 pi-web 行为，保存后无需重启。</text>
  <rect class="panel2" x="166" y="186" width="120" height="220" rx="8"/>
  <rect class="chip" x="180" y="204" width="92" height="32" rx="8"/>
  <text class="muted body" x="226" y="225" text-anchor="middle">WorkTree</text>
  <rect class="blueChip" x="180" y="246" width="92" height="32" rx="8"/>
  <text class="text body" x="226" y="267" text-anchor="middle">Trellis</text>
  <text class="text h2" x="314" y="214">Trellis 面板</text>
  <text class="muted body" x="314" y="238">从当前工作区 .trellis/tasks 读取任务，只读展示。</text>
  <rect class="chip" x="314" y="266" width="300" height="54" rx="10"/>
  <text class="text body" x="332" y="290">启用 Trellis 右侧抽屉</text>
  <rect x="560" y="280" width="38" height="20" rx="999" fill="#2563eb"/>
  <circle cx="588" cy="290" r="8" fill="#e5e7eb"/>
  <rect class="chip" x="314" y="332" width="300" height="54" rx="10"/>
  <text class="text body" x="332" y="356">默认包含已归档任务</text>
  <rect x="560" y="346" width="38" height="20" rx="999" fill="#334155"/>
  <circle cx="570" cy="356" r="8" fill="#94a3b8"/>
  <rect class="blueChip" x="548" y="416" width="86" height="28" rx="8"/>
  <text class="text body" x="591" y="435" text-anchor="middle">保存</text>
</svg>
